# MagicaVoxel @ Ephtracy

# group
o 

# material
mtllib floorCarpetFill.mtl
usemtl palette

# normals
vn -1 0 0
vn 1 0 0
vn 0 0 1
vn 0 0 -1
vn 0 -1 0
vn 0 1 0

# texcoords
vt 0.0644531 0.5
vt 0.478516 0.5
vt 0.798828 0.5
vt 0.814453 0.5

# verts
v -2 0 2
v -2 0 -2
v -2 0.2 1.8
v -2 0.2 -1.8
v -2 3.8 1.8
v -2 3.8 -1.8
v -2 4 2
v -2 4 -2
v 2 0 2
v 2 0 -2
v 2 0.2 1.8
v 2 0.2 -1.8
v 2 3.8 1.8
v 2 3.8 -1.8
v 2 4 2
v 2 4 -2
v -2 0 2
v -2 4 2
v -1.8 0.2 2
v -1.8 3.8 2
v -1.5 3.9 2
v -1.5 4 2
v -1.3 3.9 2
v -1.3 4 2
v 1.3 3.9 2
v 1.3 4 2
v 1.5 3.9 2
v 1.5 4 2
v 1.8 0.2 2
v 1.8 3.8 2
v 2 0 2
v 2 4 2
v -2 0 -2
v -2 4 -2
v -1.8 0.2 -2
v -1.8 3.8 -2
v -1.5 3.9 -2
v -1.5 4 -2
v -1.3 3.9 -2
v -1.3 4 -2
v 1.3 3.9 -2
v 1.3 4 -2
v 1.5 3.9 -2
v 1.5 4 -2
v 1.8 0.2 -2
v 1.8 3.8 -2
v 2 0 -2
v 2 4 -2
v -2 0 2
v 2 0 2
v -1.8 0 1.8
v 1.8 0 1.8
v -1.8 0 -1.8
v 1.8 0 -1.8
v -2 0 -2
v 2 0 -2
v -2 4 2
v -1.5 4 2
v -1.3 4 2
v 1.3 4 2
v 1.5 4 2
v 2 4 2
v -1.8 4 1.8
v -1.5 4 1.8
v 1.5 4 1.8
v 1.8 4 1.8
v -1.8 4 -1.8
v -1.5 4 -1.8
v 1.5 4 -1.8
v 1.8 4 -1.8
v -2 4 -2
v -1.5 4 -2
v -1.3 4 -2
v 1.3 4 -2
v 1.5 4 -2
v 2 4 -2

# faces
f 3/3/1 2/3/1 1/3/1
f 4/3/1 2/3/1 3/3/1
f 5/3/1 3/3/1 1/3/1
f 5/4/1 4/4/1 3/4/1
f 6/3/1 2/3/1 4/3/1
f 6/4/1 4/4/1 5/4/1
f 7/3/1 5/3/1 1/3/1
f 7/3/1 6/3/1 5/3/1
f 8/3/1 2/3/1 6/3/1
f 8/3/1 6/3/1 7/3/1
f 9/3/2 10/3/2 11/3/2
f 11/3/2 10/3/2 12/3/2
f 9/3/2 11/3/2 13/3/2
f 11/4/2 12/4/2 13/4/2
f 12/3/2 10/3/2 14/3/2
f 13/4/2 12/4/2 14/4/2
f 9/3/2 13/3/2 15/3/2
f 13/3/2 14/3/2 15/3/2
f 14/3/2 10/3/2 16/3/2
f 15/3/2 14/3/2 16/3/2
f 19/3/3 18/3/3 17/3/3
f 20/3/3 18/3/3 19/3/3
f 21/3/3 18/3/3 20/3/3
f 22/3/3 18/3/3 21/3/3
f 23/3/3 21/3/3 20/3/3
f 23/2/3 22/2/3 21/2/3
f 24/2/3 22/2/3 23/2/3
f 25/3/3 23/3/3 20/3/3
f 25/1/3 24/1/3 23/1/3
f 26/1/3 24/1/3 25/1/3
f 27/3/3 25/3/3 20/3/3
f 27/2/3 26/2/3 25/2/3
f 28/2/3 26/2/3 27/2/3
f 29/3/3 19/3/3 17/3/3
f 29/4/3 20/4/3 19/4/3
f 30/3/3 28/3/3 27/3/3
f 30/4/3 20/4/3 29/4/3
f 30/3/3 27/3/3 20/3/3
f 31/3/3 29/3/3 17/3/3
f 31/3/3 30/3/3 29/3/3
f 32/3/3 28/3/3 30/3/3
f 32/3/3 30/3/3 31/3/3
f 33/3/4 34/3/4 35/3/4
f 35/3/4 34/3/4 36/3/4
f 36/3/4 34/3/4 37/3/4
f 37/3/4 34/3/4 38/3/4
f 36/3/4 37/3/4 39/3/4
f 37/2/4 38/2/4 39/2/4
f 39/2/4 38/2/4 40/2/4
f 36/3/4 39/3/4 41/3/4
f 39/1/4 40/1/4 41/1/4
f 41/1/4 40/1/4 42/1/4
f 36/3/4 41/3/4 43/3/4
f 41/2/4 42/2/4 43/2/4
f 43/2/4 42/2/4 44/2/4
f 33/3/4 35/3/4 45/3/4
f 35/4/4 36/4/4 45/4/4
f 43/3/4 44/3/4 46/3/4
f 45/4/4 36/4/4 46/4/4
f 36/3/4 43/3/4 46/3/4
f 33/3/4 45/3/4 47/3/4
f 45/3/4 46/3/4 47/3/4
f 46/3/4 44/3/4 48/3/4
f 47/3/4 46/3/4 48/3/4
f 51/3/5 50/3/5 49/3/5
f 52/3/5 50/3/5 51/3/5
f 53/3/5 51/3/5 49/3/5
f 53/4/5 52/4/5 51/4/5
f 54/3/5 50/3/5 52/3/5
f 54/4/5 52/4/5 53/4/5
f 55/3/5 53/3/5 49/3/5
f 55/3/5 54/3/5 53/3/5
f 56/3/5 50/3/5 54/3/5
f 56/3/5 54/3/5 55/3/5
f 57/3/6 58/3/6 63/3/6
f 58/2/6 59/2/6 64/2/6
f 63/3/6 58/3/6 64/3/6
f 61/3/6 62/3/6 65/3/6
f 60/2/6 61/2/6 65/2/6
f 65/3/6 62/3/6 66/3/6
f 57/3/6 63/3/6 67/3/6
f 63/4/6 64/4/6 67/4/6
f 64/2/6 59/2/6 68/2/6
f 67/4/6 64/4/6 68/4/6
f 65/4/6 66/4/6 69/4/6
f 60/2/6 65/2/6 69/2/6
f 66/3/6 62/3/6 70/3/6
f 69/4/6 66/4/6 70/4/6
f 57/3/6 67/3/6 71/3/6
f 67/3/6 68/3/6 71/3/6
f 68/2/6 59/2/6 72/2/6
f 71/3/6 68/3/6 72/3/6
f 59/1/6 60/1/6 73/1/6
f 72/2/6 59/2/6 73/2/6
f 60/2/6 69/2/6 74/2/6
f 73/1/6 60/1/6 74/1/6
f 69/3/6 70/3/6 75/3/6
f 74/2/6 69/2/6 75/2/6
f 70/3/6 62/3/6 76/3/6
f 75/3/6 70/3/6 76/3/6
