# MagicaVoxel @ Ephtracy

# group
o 

# material
mtllib floorCarpetEnd.mtl
usemtl palette

# normals
vn -1 0 0
vn 1 0 0
vn 0 0 1
vn 0 0 -1
vn 0 -1 0
vn 0 1 0

# texcoords
vt 0.0644531 0.5
vt 0.478516 0.5
vt 0.798828 0.5
vt 0.814453 0.5

# verts
v -2 0 2
v -2 0 -2
v -2 0.2 1.8
v -2 0.2 -1.8
v -2 3.8 1.8
v -2 3.8 -1.8
v -2 4 2
v -2 4 -2
v 2 0 2
v 2 0 -2
v 2 0.2 1.8
v 2 0.2 -1.8
v 2 3.8 1.8
v 2 3.8 -1.8
v 2 4 2
v 2 4 -2
v -2 0 2
v -2 4 2
v -1.8 0.2 2
v -1.8 3.8 2
v -1.5 3.9 2
v -1.5 4 2
v -1.3 3.9 2
v -1.3 4 2
v 1.3 3.9 2
v 1.3 4 2
v 1.5 3.9 2
v 1.5 4 2
v 1.8 0.2 2
v 1.8 3.8 2
v 2 0 2
v 2 4 2
v -2 0 -2
v -2 4 -2
v -1.8 0.2 -2
v -1.8 3.8 -2
v 1.8 0.2 -2
v 1.8 3.8 -2
v 2 0 -2
v 2 4 -2
v -2 0 2
v 2 0 2
v -1.8 0 1.8
v 1.8 0 1.8
v -1.8 0 -1.8
v 1.8 0 -1.8
v -2 0 -2
v 2 0 -2
v -2 4 2
v -1.5 4 2
v -1.3 4 2
v 1.3 4 2
v 1.5 4 2
v 2 4 2
v -1.8 4 1.8
v -1.5 4 1.8
v 1.5 4 1.8
v 1.8 4 1.8
v -1.3 4 -0.9
v 1.3 4 -0.9
v -1.5 4 -1.1
v 1.5 4 -1.1
v -1.8 4 -1.8
v 1.8 4 -1.8
v -2 4 -2
v 2 4 -2

# faces
f 3/3/1 2/3/1 1/3/1
f 4/3/1 2/3/1 3/3/1
f 5/3/1 3/3/1 1/3/1
f 5/4/1 4/4/1 3/4/1
f 6/3/1 2/3/1 4/3/1
f 6/4/1 4/4/1 5/4/1
f 7/3/1 5/3/1 1/3/1
f 7/3/1 6/3/1 5/3/1
f 8/3/1 2/3/1 6/3/1
f 8/3/1 6/3/1 7/3/1
f 9/3/2 10/3/2 11/3/2
f 11/3/2 10/3/2 12/3/2
f 9/3/2 11/3/2 13/3/2
f 11/4/2 12/4/2 13/4/2
f 12/3/2 10/3/2 14/3/2
f 13/4/2 12/4/2 14/4/2
f 9/3/2 13/3/2 15/3/2
f 13/3/2 14/3/2 15/3/2
f 14/3/2 10/3/2 16/3/2
f 15/3/2 14/3/2 16/3/2
f 19/3/3 18/3/3 17/3/3
f 20/3/3 18/3/3 19/3/3
f 21/3/3 18/3/3 20/3/3
f 22/3/3 18/3/3 21/3/3
f 23/3/3 21/3/3 20/3/3
f 23/2/3 22/2/3 21/2/3
f 24/2/3 22/2/3 23/2/3
f 25/3/3 23/3/3 20/3/3
f 25/1/3 24/1/3 23/1/3
f 26/1/3 24/1/3 25/1/3
f 27/3/3 25/3/3 20/3/3
f 27/2/3 26/2/3 25/2/3
f 28/2/3 26/2/3 27/2/3
f 29/3/3 19/3/3 17/3/3
f 29/4/3 20/4/3 19/4/3
f 30/3/3 28/3/3 27/3/3
f 30/4/3 20/4/3 29/4/3
f 30/3/3 27/3/3 20/3/3
f 31/3/3 29/3/3 17/3/3
f 31/3/3 30/3/3 29/3/3
f 32/3/3 28/3/3 30/3/3
f 32/3/3 30/3/3 31/3/3
f 33/3/4 34/3/4 35/3/4
f 35/3/4 34/3/4 36/3/4
f 33/3/4 35/3/4 37/3/4
f 35/4/4 36/4/4 37/4/4
f 36/3/4 34/3/4 38/3/4
f 37/4/4 36/4/4 38/4/4
f 33/3/4 37/3/4 39/3/4
f 37/3/4 38/3/4 39/3/4
f 38/3/4 34/3/4 40/3/4
f 39/3/4 38/3/4 40/3/4
f 43/3/5 42/3/5 41/3/5
f 44/3/5 42/3/5 43/3/5
f 45/3/5 43/3/5 41/3/5
f 45/4/5 44/4/5 43/4/5
f 46/3/5 42/3/5 44/3/5
f 46/4/5 44/4/5 45/4/5
f 47/3/5 45/3/5 41/3/5
f 47/3/5 46/3/5 45/3/5
f 48/3/5 42/3/5 46/3/5
f 48/3/5 46/3/5 47/3/5
f 49/3/6 50/3/6 55/3/6
f 50/2/6 51/2/6 56/2/6
f 55/3/6 50/3/6 56/3/6
f 53/3/6 54/3/6 57/3/6
f 52/2/6 53/2/6 57/2/6
f 57/3/6 54/3/6 58/3/6
f 56/2/6 51/2/6 59/2/6
f 51/1/6 52/1/6 59/1/6
f 52/2/6 57/2/6 60/2/6
f 59/1/6 52/1/6 60/1/6
f 55/4/6 56/4/6 61/4/6
f 56/2/6 59/2/6 61/2/6
f 59/2/6 60/2/6 61/2/6
f 57/4/6 58/4/6 62/4/6
f 61/2/6 60/2/6 62/2/6
f 60/2/6 57/2/6 62/2/6
f 49/3/6 55/3/6 63/3/6
f 55/4/6 61/4/6 63/4/6
f 61/4/6 62/4/6 63/4/6
f 58/3/6 54/3/6 64/3/6
f 63/4/6 62/4/6 64/4/6
f 62/4/6 58/4/6 64/4/6
f 49/3/6 63/3/6 65/3/6
f 63/3/6 64/3/6 65/3/6
f 64/3/6 54/3/6 66/3/6
f 65/3/6 64/3/6 66/3/6
