# MagicaVoxel @ Ephtracy

# group
o 

# material
mtllib wallDoor.mtl
usemtl palette

# normals
vn -1 0 0
vn 1 0 0
vn 0 0 1
vn 0 0 -1
vn 0 -1 0
vn 0 1 0

# texcoords
vt 0.0683594 0.5
vt 0.689453 0.5
vt 0.693359 0.5

# verts
v -2 0 2
v -2 0 0.0999999
v -2 0 -2.38419e-07
v -2 0 -1
v -2 0 -1.1
v -2 0 -2
v -2 2 0.0999999
v -2 2 -2.38419e-07
v -2 2 -1
v -2 2 -1.1
v -2 3.8 1.6
v -2 3.8 1.5
v -2 3.8 -0.2
v -2 3.8 -0.3
v -2 3.8 -1.5
v -2 3.8 -1.6
v -2 3.9 1.8
v -2 3.9 1.7
v -2 3.9 1.6
v -2 3.9 1.5
v -2 3.9 1.3
v -2 3.9 1.1
v -2 3.9 0.9
v -2 3.9 0.6
v -2 3.9 0.5
v -2 3.9 -0.2
v -2 3.9 -0.3
v -2 3.9 -1.5
v -2 3.9 -1.6
v -2 4 2
v -2 4 1.8
v -2 4 1.7
v -2 4 1.5
v -2 4 1.3
v -2 4 1.1
v -2 4 0.9
v -2 4 0.6
v -2 4 0.5
v -2 4 -2
v -1.9 3.8 1.7
v -1.9 3.8 1.6
v -1.9 3.8 1
v -1.9 3.8 0.8
v -1.9 3.8 0.7
v -1.9 3.8 0.6
v -1.9 3.8 0.3
v -1.9 3.8 -2.38419e-07
v -1.9 3.8 -0.1
v -1.9 3.8 -0.2
v -1.9 3.8 -0.3
v -1.9 3.8 -0.5
v -1.9 3.8 -0.6
v -1.9 3.8 -0.7
v -1.9 3.8 -1.1
v -1.9 3.8 -1.5
v -1.9 3.8 -1.6
v -1.9 3.8 -1.8
v -1.9 3.9 1.7
v -1.9 3.9 1.6
v -1.9 3.9 1.5
v -1.9 3.9 1
v -1.9 3.9 0.9
v -1.9 3.9 0.7
v -1.9 3.9 0.6
v -1.9 3.9 0.5
v -1.9 3.9 0.4
v -1.9 3.9 0.0999999
v -1.9 3.9 -2.38419e-07
v -1.9 3.9 -0.2
v -1.9 3.9 -0.3
v -1.9 3.9 -0.5
v -1.9 3.9 -0.9
v -1.9 3.9 -1.1
v -1.9 3.9 -1.4
v -1.9 3.9 -1.5
v -1.9 3.9 -1.6
v -1.9 3.9 -1.7
v -1.9 3.9 -1.8
v -1.9 3.9 -1.9
v -1.9 4 1.7
v -1.9 4 1.5
v -1.9 4 0.9
v -1.9 4 0.8
v -1.9 4 0.5
v -1.9 4 0.4
v -1.9 4 0.3
v -1.9 4 0.0999999
v -1.9 4 -0.1
v -1.9 4 -0.3
v -1.9 4 -0.6
v -1.9 4 -0.7
v -1.9 4 -0.9
v -1.9 4 -1.4
v -1.9 4 -1.5
v -1.9 4 -1.7
v -1.9 4 -1.8
v -1.9 4 -1.9
v -1.8 0 2
v -1.8 0 0.0999999
v -1.8 0 -2.38419e-07
v -1.8 0 -1
v -1.8 0 -1.1
v -1.8 0 -2
v -1.8 1.8 1.6
v -1.8 1.8 1.2
v -1.8 2 1.6
v -1.8 2 1.2
v -1.8 2 -2.38419e-07
v -1.8 2 -1
v -1.8 2.1 0.0999999
v -1.8 2.1 -1.1
v -1.8 2.1 -1.4
v -1.8 2.1 -1.8
v -1.8 2.3 -1.4
v -1.8 2.3 -1.8
v -1.8 2.6 0.5
v -1.8 2.6 0.0999999
v -1.8 2.8 0.5
v -1.8 2.8 0.0999999
v -1.8 3.8 1.7
v -1.8 3.8 1.5
v -1.8 3.8 1
v -1.8 3.8 0.8
v -1.8 3.8 0.7
v -1.8 3.8 0.6
v -1.8 3.8 0.3
v -1.8 3.8 -2.38419e-07
v -1.8 3.8 -0.1
v -1.8 3.8 -0.5
v -1.8 3.8 -0.6
v -1.8 3.8 -0.7
v -1.8 3.8 -1.1
v -1.8 3.8 -1.8
v -1.8 3.9 1.8
v -1.8 3.9 1.7
v -1.8 3.9 1.5
v -1.8 3.9 1.3
v -1.8 3.9 1.1
v -1.8 3.9 1
v -1.8 3.9 0.7
v -1.8 3.9 0.6
v -1.8 3.9 0.4
v -1.8 3.9 0.0999999
v -1.8 3.9 -2.38419e-07
v -1.8 3.9 -0.3
v -1.8 3.9 -0.5
v -1.8 3.9 -0.9
v -1.8 3.9 -1.1
v -1.8 3.9 -1.4
v -1.8 3.9 -1.5
v -1.8 3.9 -1.7
v -1.8 3.9 -1.8
v -1.8 3.9 -1.9
v -1.8 4 2
v -1.8 4 1.8
v -1.8 4 1.3
v -1.8 4 1.1
v -1.8 4 0.8
v -1.8 4 0.6
v -1.8 4 0.4
v -1.8 4 0.3
v -1.8 4 0.0999999
v -1.8 4 -0.1
v -1.8 4 -0.3
v -1.8 4 -0.6
v -1.8 4 -0.7
v -1.8 4 -0.9
v -1.8 4 -1.4
v -1.8 4 -1.5
v -1.8 4 -1.7
v -1.8 4 -1.8
v -1.8 4 -1.9
v -1.8 4 -2
v -1.7 1.8 1.6
v -1.7 1.8 1.2
v -1.7 2 1.6
v -1.7 2 1.2
v -1.7 2.1 -1.4
v -1.7 2.1 -1.8
v -1.7 2.3 -1.4
v -1.7 2.3 -1.8
v -1.7 2.6 0.5
v -1.7 2.6 0.0999999
v -1.7 2.8 0.5
v -1.7 2.8 0.0999999
v -2 0 2
v -2 4 2
v -1.8 0 2
v -1.8 4 2
v -2 3.9 1.7
v -2 4 1.7
v -1.9 3.9 1.7
v -1.9 4 1.7
v -1.8 1.8 1.6
v -1.8 2 1.6
v -1.7 1.8 1.6
v -1.7 2 1.6
v -2 3.8 1.5
v -2 3.9 1.5
v -1.9 3.9 1.5
v -1.8 3.8 1.5
v -1.8 3.9 1.5
v -2 3.9 1.3
v -2 4 1.3
v -1.8 3.9 1.3
v -1.8 4 1.3
v -2 3.9 0.9
v -2 4 0.9
v -1.9 3.9 0.9
v -1.9 4 0.9
v -1.9 3.8 0.8
v -1.9 4 0.8
v -1.8 3.8 0.8
v -1.8 4 0.8
v -1.9 3.8 0.6
v -1.9 3.9 0.6
v -1.8 3.8 0.6
v -1.8 3.9 0.6
v -2 3.9 0.5
v -2 4 0.5
v -1.9 3.9 0.5
v -1.9 4 0.5
v -1.8 2.6 0.5
v -1.8 2.8 0.5
v -1.7 2.6 0.5
v -1.7 2.8 0.5
v -1.9 3.9 0.4
v -1.9 4 0.4
v -1.8 3.9 0.4
v -1.8 4 0.4
v -1.9 3.9 0.0999999
v -1.9 4 0.0999999
v -1.8 3.9 0.0999999
v -1.8 4 0.0999999
v -1.9 3.8 -2.38419e-07
v -1.9 3.9 -2.38419e-07
v -1.8 3.8 -2.38419e-07
v -1.8 3.9 -2.38419e-07
v -2 3.8 -0.3
v -2 3.9 -0.3
v -1.9 3.8 -0.3
v -1.9 3.9 -0.3
v -1.9 4 -0.3
v -1.8 3.9 -0.3
v -1.8 4 -0.3
v -1.9 3.8 -0.5
v -1.9 3.9 -0.5
v -1.8 3.8 -0.5
v -1.8 3.9 -0.5
v -1.9 3.8 -0.7
v -1.9 4 -0.7
v -1.8 3.8 -0.7
v -1.8 4 -0.7
v -2 0 -1
v -2 2 -1
v -1.9 2 -1
v -1.8 0 -1
v -1.8 2 -1
v -1.9 3.9 -1.4
v -1.9 4 -1.4
v -1.8 2.1 -1.4
v -1.8 2.3 -1.4
v -1.8 3.9 -1.4
v -1.8 4 -1.4
v -1.7 2.1 -1.4
v -1.7 2.3 -1.4
v -2 3.8 -1.6
v -2 3.9 -1.6
v -1.9 3.8 -1.6
v -1.9 3.9 -1.6
v -1.9 3.9 -1.7
v -1.9 4 -1.7
v -1.8 3.9 -1.7
v -1.8 4 -1.7
v -1.9 3.8 -1.8
v -1.9 3.9 -1.8
v -1.8 3.8 -1.8
v -1.8 3.9 -1.8
v -1.9 3.9 -1.9
v -1.9 4 -1.9
v -1.8 3.9 -1.9
v -1.8 4 -1.9
v -2 3.9 1.8
v -2 4 1.8
v -1.8 3.9 1.8
v -1.8 4 1.8
v -1.9 3.8 1.7
v -1.9 3.9 1.7
v -1.8 3.8 1.7
v -1.8 3.9 1.7
v -2 3.8 1.6
v -2 3.9 1.6
v -1.9 3.8 1.6
v -1.9 3.9 1.6
v -2 3.9 1.5
v -2 4 1.5
v -1.9 3.9 1.5
v -1.9 4 1.5
v -1.8 1.8 1.2
v -1.8 2 1.2
v -1.7 1.8 1.2
v -1.7 2 1.2
v -2 3.9 1.1
v -2 4 1.1
v -1.8 3.9 1.1
v -1.8 4 1.1
v -1.9 3.8 1
v -1.9 3.9 1
v -1.8 3.8 1
v -1.8 3.9 1
v -1.9 3.8 0.7
v -1.9 3.9 0.7
v -1.8 3.8 0.7
v -1.8 3.9 0.7
v -2 3.9 0.6
v -2 4 0.6
v -1.8 3.9 0.6
v -1.8 4 0.6
v -1.9 3.8 0.3
v -1.9 4 0.3
v -1.8 3.8 0.3
v -1.8 4 0.3
v -1.8 2.6 0.0999999
v -1.8 2.8 0.0999999
v -1.7 2.6 0.0999999
v -1.7 2.8 0.0999999
v -2 0 -2.38419e-07
v -2 2 -2.38419e-07
v -1.9 2 -2.38419e-07
v -1.8 0 -2.38419e-07
v -1.8 2 -2.38419e-07
v -1.9 3.8 -0.1
v -1.9 4 -0.1
v -1.8 3.8 -0.1
v -1.8 4 -0.1
v -2 3.8 -0.2
v -2 3.9 -0.2
v -1.9 3.8 -0.2
v -1.9 3.9 -0.2
v -1.9 3.8 -0.6
v -1.9 4 -0.6
v -1.8 3.8 -0.6
v -1.8 4 -0.6
v -1.9 3.9 -0.9
v -1.9 4 -0.9
v -1.8 3.9 -0.9
v -1.8 4 -0.9
v -1.9 3.8 -1.1
v -1.9 3.9 -1.1
v -1.8 3.8 -1.1
v -1.8 3.9 -1.1
v -2 3.8 -1.5
v -2 3.9 -1.5
v -1.9 3.8 -1.5
v -1.9 3.9 -1.5
v -1.9 4 -1.5
v -1.8 3.9 -1.5
v -1.8 4 -1.5
v -1.9 3.9 -1.8
v -1.9 4 -1.8
v -1.8 2.1 -1.8
v -1.8 2.3 -1.8
v -1.8 3.9 -1.8
v -1.8 4 -1.8
v -1.7 2.1 -1.8
v -1.7 2.3 -1.8
v -2 0 -2
v -2 4 -2
v -1.8 0 -2
v -1.8 4 -2
v -2 0 2
v -1.8 0 2
v -2 0 0.0999999
v -1.8 0 0.0999999
v -2 0 -2.38419e-07
v -1.8 0 -2.38419e-07
v -2 0 -1
v -1.8 0 -1
v -2 0 -1.1
v -1.8 0 -1.1
v -2 0 -2
v -1.8 0 -2
v -1.8 1.8 1.6
v -1.7 1.8 1.6
v -1.8 1.8 1.2
v -1.7 1.8 1.2
v -2 2 -2.38419e-07
v -1.9 2 -2.38419e-07
v -1.8 2 -2.38419e-07
v -2 2 -1
v -1.9 2 -1
v -1.8 2 -1
v -1.8 2.1 -1.4
v -1.7 2.1 -1.4
v -1.8 2.1 -1.8
v -1.7 2.1 -1.8
v -1.8 2.6 0.5
v -1.7 2.6 0.5
v -1.8 2.6 0.0999999
v -1.7 2.6 0.0999999
v -2 3.9 1.6
v -1.9 3.9 1.6
v -2 3.9 1.5
v -1.9 3.9 1.5
v -1.9 3.9 0.7
v -1.8 3.9 0.7
v -1.9 3.9 0.6
v -1.8 3.9 0.6
v -1.9 3.9 0.0999999
v -1.8 3.9 0.0999999
v -1.9 3.9 -2.38419e-07
v -1.8 3.9 -2.38419e-07
v -2 3.9 -0.2
v -1.9 3.9 -0.2
v -2 3.9 -0.3
v -1.9 3.9 -0.3
v -1.8 3.9 -0.3
v -1.9 3.9 -0.5
v -1.8 3.9 -0.5
v -1.9 3.9 -1.4
v -1.8 3.9 -1.4
v -2 3.9 -1.5
v -1.9 3.9 -1.5
v -1.8 3.9 -1.5
v -2 3.9 -1.6
v -1.9 3.9 -1.6
v -1.9 3.9 -1.7
v -1.8 3.9 -1.7
v -1.9 3.9 -1.8
v -1.8 3.9 -1.8
v -1.8 2 1.6
v -1.7 2 1.6
v -1.8 2 1.2
v -1.7 2 1.2
v -1.8 2.3 -1.4
v -1.7 2.3 -1.4
v -1.8 2.3 -1.8
v -1.7 2.3 -1.8
v -1.8 2.8 0.5
v -1.7 2.8 0.5
v -1.8 2.8 0.0999999
v -1.7 2.8 0.0999999
v -1.9 3.8 1.7
v -1.8 3.8 1.7
v -2 3.8 1.6
v -1.9 3.8 1.6
v -2 3.8 1.5
v -1.8 3.8 1.5
v -1.9 3.8 1
v -1.8 3.8 1
v -1.9 3.8 0.8
v -1.8 3.8 0.8
v -1.9 3.8 0.7
v -1.8 3.8 0.7
v -1.9 3.8 0.6
v -1.8 3.8 0.6
v -1.9 3.8 0.3
v -1.8 3.8 0.3
v -1.9 3.8 -2.38419e-07
v -1.8 3.8 -2.38419e-07
v -1.9 3.8 -0.1
v -1.8 3.8 -0.1
v -2 3.8 -0.2
v -1.9 3.8 -0.2
v -2 3.8 -0.3
v -1.9 3.8 -0.3
v -1.9 3.8 -0.5
v -1.8 3.8 -0.5
v -1.9 3.8 -0.6
v -1.8 3.8 -0.6
v -1.9 3.8 -0.7
v -1.8 3.8 -0.7
v -1.9 3.8 -1.1
v -1.8 3.8 -1.1
v -2 3.8 -1.5
v -1.9 3.8 -1.5
v -2 3.8 -1.6
v -1.9 3.8 -1.6
v -1.9 3.8 -1.8
v -1.8 3.8 -1.8
v -2 3.9 1.8
v -1.8 3.9 1.8
v -2 3.9 1.7
v -1.9 3.9 1.7
v -1.8 3.9 1.7
v -2 3.9 1.5
v -1.9 3.9 1.5
v -1.8 3.9 1.5
v -2 3.9 1.3
v -1.8 3.9 1.3
v -2 3.9 1.1
v -1.8 3.9 1.1
v -1.9 3.9 1
v -1.8 3.9 1
v -2 3.9 0.9
v -1.9 3.9 0.9
v -2 3.9 0.6
v -1.8 3.9 0.6
v -2 3.9 0.5
v -1.9 3.9 0.5
v -1.9 3.9 0.4
v -1.8 3.9 0.4
v -1.9 3.9 -0.9
v -1.8 3.9 -0.9
v -1.9 3.9 -1.1
v -1.8 3.9 -1.1
v -1.9 3.9 -1.8
v -1.8 3.9 -1.8
v -1.9 3.9 -1.9
v -1.8 3.9 -1.9
v -2 4 2
v -1.8 4 2
v -2 4 1.8
v -1.8 4 1.8
v -2 4 1.7
v -1.9 4 1.7
v -2 4 1.5
v -1.9 4 1.5
v -2 4 1.3
v -1.8 4 1.3
v -2 4 1.1
v -1.8 4 1.1
v -2 4 0.9
v -1.9 4 0.9
v -1.9 4 0.8
v -1.8 4 0.8
v -2 4 0.6
v -1.8 4 0.6
v -2 4 0.5
v -1.9 4 0.5
v -1.9 4 0.4
v -1.8 4 0.4
v -1.9 4 0.3
v -1.8 4 0.3
v -1.9 4 0.0999999
v -1.8 4 0.0999999
v -1.9 4 -0.1
v -1.8 4 -0.1
v -1.9 4 -0.3
v -1.8 4 -0.3
v -1.9 4 -0.6
v -1.8 4 -0.6
v -1.9 4 -0.7
v -1.8 4 -0.7
v -1.9 4 -0.9
v -1.8 4 -0.9
v -1.9 4 -1.4
v -1.8 4 -1.4
v -1.9 4 -1.5
v -1.8 4 -1.5
v -1.9 4 -1.7
v -1.8 4 -1.7
v -1.9 4 -1.8
v -1.8 4 -1.8
v -1.9 4 -1.9
v -1.8 4 -1.9
v -2 4 -2
v -1.8 4 -2

# faces
f 7/3/1 2/3/1 1/3/1
f 7/1/1 3/1/1 2/1/1
f 8/1/1 3/1/1 7/1/1
f 9/1/1 5/1/1 4/1/1
f 10/3/1 6/3/1 5/3/1
f 10/1/1 5/1/1 9/1/1
f 11/3/1 9/3/1 8/3/1
f 11/3/1 8/3/1 7/3/1
f 11/3/1 10/3/1 9/3/1
f 11/3/1 7/3/1 1/3/1
f 12/3/1 10/3/1 11/3/1
f 13/3/1 10/3/1 12/3/1
f 14/3/1 10/3/1 13/3/1
f 15/3/1 6/3/1 10/3/1
f 15/3/1 10/3/1 14/3/1
f 16/3/1 6/3/1 15/3/1
f 17/3/1 11/3/1 1/3/1
f 18/3/1 11/3/1 17/3/1
f 19/3/1 11/3/1 18/3/1
f 20/3/1 13/3/1 12/3/1
f 21/3/1 13/3/1 20/3/1
f 22/3/1 13/3/1 21/3/1
f 23/3/1 13/3/1 22/3/1
f 24/3/1 13/3/1 23/3/1
f 25/3/1 13/3/1 24/3/1
f 26/3/1 13/3/1 25/3/1
f 27/3/1 15/3/1 14/3/1
f 28/3/1 15/3/1 27/3/1
f 29/3/1 6/3/1 16/3/1
f 30/3/1 17/3/1 1/3/1
f 31/3/1 17/3/1 30/3/1
f 32/3/1 19/3/1 18/3/1
f 32/3/1 20/3/1 19/3/1
f 33/3/1 20/3/1 32/3/1
f 34/3/1 22/3/1 21/3/1
f 35/3/1 22/3/1 34/3/1
f 36/3/1 24/3/1 23/3/1
f 37/3/1 24/3/1 36/3/1
f 38/3/1 28/3/1 27/3/1
f 38/3/1 26/3/1 25/3/1
f 38/3/1 29/3/1 28/3/1
f 38/3/1 27/3/1 26/3/1
f 39/3/1 6/3/1 29/3/1
f 39/3/1 29/3/1 38/3/1
f 40/3/2 41/3/2 58/3/2
f 58/3/2 41/3/2 59/3/2
f 42/3/2 43/3/2 61/3/2
f 61/3/2 43/3/2 62/3/2
f 44/3/2 45/3/2 63/3/2
f 63/3/2 45/3/2 64/3/2
f 46/3/2 47/3/2 67/3/2
f 67/3/2 47/3/2 68/3/2
f 48/3/2 49/3/2 69/3/2
f 50/3/2 51/3/2 70/3/2
f 70/3/2 51/3/2 71/3/2
f 54/3/2 55/3/2 73/3/2
f 73/3/2 55/3/2 74/3/2
f 74/3/2 55/3/2 75/3/2
f 56/3/2 57/3/2 76/3/2
f 76/3/2 57/3/2 77/3/2
f 77/3/2 57/3/2 78/3/2
f 59/3/2 60/3/2 80/3/2
f 58/3/2 59/3/2 80/3/2
f 80/3/2 60/3/2 81/3/2
f 62/3/2 43/3/2 82/3/2
f 82/3/2 43/3/2 83/3/2
f 65/3/2 66/3/2 84/3/2
f 84/3/2 66/3/2 85/3/2
f 46/3/2 67/3/2 86/3/2
f 86/3/2 67/3/2 87/3/2
f 48/3/2 69/3/2 88/3/2
f 69/3/2 70/3/2 88/3/2
f 88/3/2 70/3/2 89/3/2
f 52/3/2 53/3/2 90/3/2
f 90/3/2 53/3/2 91/3/2
f 73/3/2 74/3/2 92/3/2
f 72/3/2 73/3/2 92/3/2
f 92/3/2 74/3/2 93/3/2
f 76/3/2 77/3/2 94/3/2
f 75/3/2 76/3/2 94/3/2
f 94/3/2 77/3/2 95/3/2
f 78/3/2 79/3/2 96/3/2
f 96/3/2 79/3/2 97/3/2
f 98/3/2 99/3/2 104/3/2
f 104/3/2 99/3/2 105/3/2
f 98/3/2 104/3/2 106/3/2
f 105/3/2 99/3/2 107/3/2
f 99/1/2 100/1/2 108/1/2
f 101/1/2 102/1/2 109/1/2
f 106/3/2 107/3/2 110/3/2
f 108/1/2 109/1/2 110/1/2
f 99/1/2 108/1/2 110/1/2
f 107/3/2 99/3/2 110/3/2
f 102/3/2 103/3/2 111/3/2
f 110/1/2 109/1/2 111/1/2
f 109/1/2 102/1/2 111/1/2
f 111/3/2 103/3/2 112/3/2
f 112/3/2 103/3/2 113/3/2
f 110/3/2 111/3/2 114/3/2
f 111/3/2 112/3/2 114/3/2
f 113/3/2 103/3/2 115/3/2
f 106/3/2 110/3/2 116/3/2
f 114/3/2 115/3/2 116/3/2
f 110/3/2 114/3/2 116/3/2
f 116/3/2 115/3/2 117/3/2
f 106/3/2 116/3/2 118/3/2
f 117/3/2 115/3/2 119/3/2
f 98/3/2 106/3/2 120/3/2
f 118/3/2 119/3/2 120/3/2
f 106/3/2 118/3/2 120/3/2
f 120/3/2 119/3/2 121/3/2
f 121/3/2 119/3/2 122/3/2
f 122/3/2 119/3/2 123/3/2
f 123/3/2 119/3/2 124/3/2
f 124/3/2 119/3/2 125/3/2
f 125/3/2 119/3/2 126/3/2
f 119/3/2 115/3/2 127/3/2
f 126/3/2 119/3/2 127/3/2
f 127/3/2 115/3/2 128/3/2
f 128/3/2 115/3/2 129/3/2
f 129/3/2 115/3/2 130/3/2
f 130/3/2 115/3/2 131/3/2
f 131/3/2 115/3/2 132/3/2
f 115/3/2 103/3/2 133/3/2
f 132/3/2 115/3/2 133/3/2
f 98/3/2 120/3/2 134/3/2
f 134/3/2 120/3/2 135/3/2
f 121/3/2 122/3/2 136/3/2
f 136/3/2 122/3/2 137/3/2
f 137/3/2 122/3/2 138/3/2
f 138/3/2 122/3/2 139/3/2
f 123/3/2 124/3/2 140/3/2
f 125/3/2 126/3/2 141/3/2
f 141/3/2 126/3/2 142/3/2
f 127/3/2 128/3/2 144/3/2
f 129/3/2 130/3/2 146/3/2
f 131/3/2 132/3/2 147/3/2
f 147/3/2 132/3/2 148/3/2
f 133/3/2 103/3/2 152/3/2
f 152/3/2 103/3/2 153/3/2
f 98/3/2 134/3/2 154/3/2
f 154/3/2 134/3/2 155/3/2
f 137/3/2 138/3/2 156/3/2
f 156/3/2 138/3/2 157/3/2
f 123/3/2 140/3/2 158/3/2
f 140/3/2 141/3/2 158/3/2
f 158/3/2 141/3/2 159/3/2
f 142/3/2 126/3/2 160/3/2
f 160/3/2 126/3/2 161/3/2
f 143/3/2 144/3/2 162/3/2
f 144/3/2 128/3/2 163/3/2
f 162/3/2 144/3/2 163/3/2
f 145/3/2 146/3/2 164/3/2
f 146/3/2 130/3/2 165/3/2
f 164/3/2 146/3/2 165/3/2
f 131/3/2 147/3/2 166/3/2
f 166/3/2 147/3/2 167/3/2
f 149/3/2 150/3/2 168/3/2
f 168/3/2 150/3/2 169/3/2
f 151/3/2 152/3/2 170/3/2
f 170/3/2 152/3/2 171/3/2
f 153/3/2 103/3/2 172/3/2
f 172/3/2 103/3/2 173/3/2
f 174/2/2 175/2/2 176/2/2
f 176/2/2 175/2/2 177/2/2
f 178/2/2 179/2/2 180/2/2
f 180/2/2 179/2/2 181/2/2
f 182/2/2 183/2/2 184/2/2
f 184/2/2 183/2/2 185/2/2
f 188/3/3 187/3/3 186/3/3
f 189/3/3 187/3/3 188/3/3
f 192/3/3 191/3/3 190/3/3
f 193/3/3 191/3/3 192/3/3
f 196/2/3 195/2/3 194/2/3
f 197/2/3 195/2/3 196/2/3
f 200/3/3 199/3/3 198/3/3
f 201/3/3 200/3/3 198/3/3
f 202/3/3 200/3/3 201/3/3
f 205/3/3 204/3/3 203/3/3
f 206/3/3 204/3/3 205/3/3
f 209/3/3 208/3/3 207/3/3
f 210/3/3 208/3/3 209/3/3
f 213/3/3 212/3/3 211/3/3
f 214/3/3 212/3/3 213/3/3
f 217/3/3 216/3/3 215/3/3
f 218/3/3 216/3/3 217/3/3
f 221/3/3 220/3/3 219/3/3
f 222/3/3 220/3/3 221/3/3
f 225/2/3 224/2/3 223/2/3
f 226/2/3 224/2/3 225/2/3
f 229/3/3 228/3/3 227/3/3
f 230/3/3 228/3/3 229/3/3
f 233/3/3 232/3/3 231/3/3
f 234/3/3 232/3/3 233/3/3
f 237/3/3 236/3/3 235/3/3
f 238/3/3 236/3/3 237/3/3
f 241/3/3 240/3/3 239/3/3
f 242/3/3 240/3/3 241/3/3
f 244/3/3 243/3/3 242/3/3
f 245/3/3 243/3/3 244/3/3
f 248/3/3 247/3/3 246/3/3
f 249/3/3 247/3/3 248/3/3
f 252/3/3 251/3/3 250/3/3
f 253/3/3 251/3/3 252/3/3
f 256/1/3 255/1/3 254/1/3
f 257/1/3 256/1/3 254/1/3
f 258/1/3 256/1/3 257/1/3
f 263/3/3 260/3/3 259/3/3
f 264/3/3 260/3/3 263/3/3
f 265/2/3 262/2/3 261/2/3
f 266/2/3 262/2/3 265/2/3
f 269/3/3 268/3/3 267/3/3
f 270/3/3 268/3/3 269/3/3
f 273/3/3 272/3/3 271/3/3
f 274/3/3 272/3/3 273/3/3
f 277/3/3 276/3/3 275/3/3
f 278/3/3 276/3/3 277/3/3
f 281/3/3 280/3/3 279/3/3
f 282/3/3 280/3/3 281/3/3
f 283/3/4 284/3/4 285/3/4
f 285/3/4 284/3/4 286/3/4
f 287/3/4 288/3/4 289/3/4
f 289/3/4 288/3/4 290/3/4
f 291/3/4 292/3/4 293/3/4
f 293/3/4 292/3/4 294/3/4
f 295/3/4 296/3/4 297/3/4
f 297/3/4 296/3/4 298/3/4
f 299/2/4 300/2/4 301/2/4
f 301/2/4 300/2/4 302/2/4
f 303/3/4 304/3/4 305/3/4
f 305/3/4 304/3/4 306/3/4
f 307/3/4 308/3/4 309/3/4
f 309/3/4 308/3/4 310/3/4
f 311/3/4 312/3/4 313/3/4
f 313/3/4 312/3/4 314/3/4
f 315/3/4 316/3/4 317/3/4
f 317/3/4 316/3/4 318/3/4
f 319/3/4 320/3/4 321/3/4
f 321/3/4 320/3/4 322/3/4
f 323/2/4 324/2/4 325/2/4
f 325/2/4 324/2/4 326/2/4
f 327/1/4 328/1/4 329/1/4
f 327/1/4 329/1/4 330/1/4
f 330/1/4 329/1/4 331/1/4
f 332/3/4 333/3/4 334/3/4
f 334/3/4 333/3/4 335/3/4
f 336/3/4 337/3/4 338/3/4
f 338/3/4 337/3/4 339/3/4
f 340/3/4 341/3/4 342/3/4
f 342/3/4 341/3/4 343/3/4
f 344/3/4 345/3/4 346/3/4
f 346/3/4 345/3/4 347/3/4
f 348/3/4 349/3/4 350/3/4
f 350/3/4 349/3/4 351/3/4
f 352/3/4 353/3/4 354/3/4
f 354/3/4 353/3/4 355/3/4
f 355/3/4 356/3/4 357/3/4
f 357/3/4 356/3/4 358/3/4
f 359/3/4 360/3/4 363/3/4
f 363/3/4 360/3/4 364/3/4
f 361/2/4 362/2/4 365/2/4
f 365/2/4 362/2/4 366/2/4
f 367/3/4 368/3/4 369/3/4
f 369/3/4 368/3/4 370/3/4
f 373/3/5 372/3/5 371/3/5
f 374/3/5 372/3/5 373/3/5
f 375/1/5 374/1/5 373/1/5
f 376/1/5 374/1/5 375/1/5
f 379/1/5 378/1/5 377/1/5
f 380/1/5 378/1/5 379/1/5
f 381/3/5 380/3/5 379/3/5
f 382/3/5 380/3/5 381/3/5
f 385/2/5 384/2/5 383/2/5
f 386/2/5 384/2/5 385/2/5
f 390/3/5 388/3/5 387/3/5
f 391/1/5 389/1/5 388/1/5
f 391/3/5 388/3/5 390/3/5
f 392/1/5 389/1/5 391/1/5
f 395/2/5 394/2/5 393/2/5
f 396/2/5 394/2/5 395/2/5
f 399/2/5 398/2/5 397/2/5
f 400/2/5 398/2/5 399/2/5
f 403/3/5 402/3/5 401/3/5
f 404/3/5 402/3/5 403/3/5
f 407/3/5 406/3/5 405/3/5
f 408/3/5 406/3/5 407/3/5
f 411/3/5 410/3/5 409/3/5
f 412/3/5 410/3/5 411/3/5
f 415/3/5 414/3/5 413/3/5
f 416/3/5 414/3/5 415/3/5
f 418/3/5 417/3/5 416/3/5
f 419/3/5 417/3/5 418/3/5
f 423/3/5 421/3/5 420/3/5
f 424/3/5 421/3/5 423/3/5
f 425/3/5 423/3/5 422/3/5
f 426/3/5 423/3/5 425/3/5
f 429/3/5 428/3/5 427/3/5
f 430/3/5 428/3/5 429/3/5
f 431/2/6 432/2/6 433/2/6
f 433/2/6 432/2/6 434/2/6
f 435/2/6 436/2/6 437/2/6
f 437/2/6 436/2/6 438/2/6
f 439/2/6 440/2/6 441/2/6
f 441/2/6 440/2/6 442/2/6
f 443/3/6 444/3/6 446/3/6
f 445/3/6 446/3/6 447/3/6
f 446/3/6 444/3/6 448/3/6
f 447/3/6 446/3/6 448/3/6
f 449/3/6 450/3/6 451/3/6
f 451/3/6 450/3/6 452/3/6
f 453/3/6 454/3/6 455/3/6
f 455/3/6 454/3/6 456/3/6
f 457/3/6 458/3/6 459/3/6
f 459/3/6 458/3/6 460/3/6
f 461/3/6 462/3/6 464/3/6
f 463/3/6 464/3/6 465/3/6
f 464/3/6 462/3/6 466/3/6
f 465/3/6 464/3/6 466/3/6
f 466/3/6 462/3/6 467/3/6
f 467/3/6 462/3/6 468/3/6
f 469/3/6 470/3/6 471/3/6
f 471/3/6 470/3/6 472/3/6
f 473/3/6 474/3/6 476/3/6
f 475/3/6 476/3/6 477/3/6
f 476/3/6 474/3/6 478/3/6
f 477/3/6 476/3/6 478/3/6
f 478/3/6 474/3/6 479/3/6
f 479/3/6 474/3/6 480/3/6
f 481/3/6 482/3/6 483/3/6
f 483/3/6 482/3/6 484/3/6
f 484/3/6 482/3/6 485/3/6
f 486/3/6 487/3/6 489/3/6
f 487/3/6 488/3/6 489/3/6
f 489/3/6 488/3/6 490/3/6
f 491/3/6 492/3/6 493/3/6
f 493/3/6 492/3/6 494/3/6
f 491/3/6 493/3/6 495/3/6
f 495/3/6 493/3/6 496/3/6
f 497/3/6 498/3/6 499/3/6
f 499/3/6 498/3/6 500/3/6
f 500/3/6 498/3/6 501/3/6
f 501/3/6 498/3/6 502/3/6
f 503/3/6 504/3/6 505/3/6
f 505/3/6 504/3/6 506/3/6
f 507/3/6 508/3/6 509/3/6
f 509/3/6 508/3/6 510/3/6
f 511/3/6 512/3/6 513/3/6
f 513/3/6 512/3/6 514/3/6
f 515/3/6 516/3/6 517/3/6
f 517/3/6 516/3/6 518/3/6
f 519/3/6 520/3/6 521/3/6
f 521/3/6 520/3/6 522/3/6
f 523/3/6 524/3/6 525/3/6
f 523/3/6 525/3/6 527/3/6
f 525/3/6 526/3/6 527/3/6
f 527/3/6 526/3/6 528/3/6
f 529/3/6 530/3/6 531/3/6
f 529/3/6 531/3/6 533/3/6
f 531/3/6 532/3/6 533/3/6
f 533/3/6 532/3/6 534/3/6
f 529/3/6 533/3/6 535/3/6
f 529/3/6 535/3/6 537/3/6
f 535/3/6 536/3/6 537/3/6
f 537/3/6 536/3/6 538/3/6
f 529/3/6 537/3/6 539/3/6
f 529/3/6 539/3/6 541/3/6
f 539/3/6 540/3/6 541/3/6
f 541/3/6 540/3/6 542/3/6
f 529/3/6 541/3/6 543/3/6
f 529/3/6 543/3/6 545/3/6
f 543/3/6 544/3/6 545/3/6
f 545/3/6 544/3/6 546/3/6
f 529/3/6 545/3/6 547/3/6
f 529/3/6 547/3/6 549/3/6
f 547/3/6 548/3/6 549/3/6
f 549/3/6 548/3/6 550/3/6
f 529/3/6 549/3/6 551/3/6
f 529/3/6 551/3/6 553/3/6
f 551/3/6 552/3/6 553/3/6
f 553/3/6 552/3/6 554/3/6
f 529/3/6 553/3/6 555/3/6
f 529/3/6 555/3/6 557/3/6
f 555/3/6 556/3/6 557/3/6
f 557/3/6 556/3/6 558/3/6
