# MagicaVoxel @ Ephtracy

# group
o 

# material
mtllib wallPlain.mtl
usemtl palette

# normals
vn -1 0 0
vn 1 0 0
vn 0 0 1
vn 0 0 -1
vn 0 -1 0
vn 0 1 0

# texcoords
vt 0.689453 0.5
vt 0.693359 0.5

# verts
v -2 0 -1.8
v -2 0 -2
v -2 4 -1.8
v -2 4 -2
v -1.8 3.8 -1.8
v -1.8 3.8 -1.9
v -1.8 3.9 -1.8
v -1.8 3.9 -1.9
v -1.7 3.9 -1.9
v -1.7 3.9 -2
v -1.7 4 -1.9
v -1.7 4 -2
v -1.6 3.3 -1.7
v -1.6 3.3 -1.8
v -1.6 3.5 -1.7
v -1.6 3.5 -1.8
v -1.6 3.8 -1.8
v -1.6 3.8 -2
v -1.6 3.9 -1.8
v -1.6 3.9 -1.9
v -1.6 3.9 -2
v -1.3 3.7 -1.8
v -1.3 3.7 -1.9
v -1.3 3.8 -1.8
v -1.3 3.8 -1.9
v -0.8 3.8 -1.9
v -0.8 3.8 -2
v -0.8 3.9 -1.9
v -0.8 3.9 -2
v -0.7 3.8 -1.8
v -0.7 3.8 -1.9
v -0.7 3.9 -1.8
v -0.7 3.9 -1.9
v -0.7 3.9 -2
v -0.7 4 -1.9
v -0.7 4 -2
v -0.6 2.6 -1.7
v -0.6 2.6 -1.8
v -0.6 2.8 -1.7
v -0.6 2.8 -1.8
v -0.5 3.9 -1.9
v -0.5 3.9 -2
v -0.5 4 -1.9
v -0.5 4 -2
v -0.3 3.8 -1.8
v -0.3 3.8 -2
v -0.3 3.9 -1.8
v -0.3 3.9 -1.9
v -0.3 3.9 -2
v -0.0999999 3.8 -1.8
v -0.0999999 3.8 -1.9
v -0.0999999 4 -1.8
v -0.0999999 4 -1.9
v 0.3 3.8 -1.8
v 0.3 3.8 -2
v 0.3 3.9 -1.8
v 0.3 3.9 -1.9
v 0.3 4 -1.9
v 0.3 4 -2
v 0.5 3.2 -1.7
v 0.5 3.2 -1.8
v 0.5 3.4 -1.7
v 0.5 3.4 -1.8
v 0.5 3.7 -1.8
v 0.5 3.7 -2
v 0.5 3.8 -1.8
v 0.5 3.8 -1.9
v 0.5 4 -1.9
v 0.5 4 -2
v 0.6 3.8 -1.8
v 0.6 3.8 -1.9
v 0.6 3.9 -1.8
v 0.6 3.9 -1.9
v 0.8 3.9 -1.8
v 0.8 3.9 -2
v 0.8 4 -1.8
v 0.8 4 -2
v 1.3 3.7 -1.8
v 1.3 3.7 -1.9
v 1.3 3.9 -1.8
v 1.3 3.9 -1.9
v 1.3 3.9 -2
v 1.3 4 -1.9
v 1.3 4 -2
v 1.4 2 -1.7
v 1.4 2 -1.8
v 1.4 2.2 -1.7
v 1.4 2.2 -1.8
v 1.5 3.9 -1.9
v 1.5 3.9 -2
v 1.5 4 -1.9
v 1.5 4 -2
v 1.6 3.8 -1.8
v 1.6 3.8 -2
v 1.6 3.9 -1.8
v 1.6 3.9 -1.9
v 1.6 3.9 -2
v 1.7 3.9 -1.9
v 1.7 3.9 -2
v 1.7 4 -1.9
v 1.7 4 -2
v 1.9 3.8 -1.8
v 1.9 3.8 -1.9
v 1.9 3.9 -1.9
v 1.9 3.9 -2
v 1.9 4 -1.8
v 1.9 4 -2
v -1.9 3.8 -1.8
v -1.9 3.8 -1.9
v -1.9 3.9 -1.9
v -1.9 3.9 -2
v -1.9 4 -1.8
v -1.9 4 -2
v -1.7 3.8 -1.8
v -1.7 3.8 -2
v -1.7 3.9 -1.8
v -1.7 3.9 -1.9
v -1.7 3.9 -2
v -1.6 3.9 -1.9
v -1.6 3.9 -2
v -1.6 4 -1.9
v -1.6 4 -2
v -1.5 3.7 -1.8
v -1.5 3.7 -1.9
v -1.5 3.8 -1.9
v -1.5 3.8 -2
v -1.5 3.9 -1.8
v -1.5 3.9 -2
v -1.2 3.3 -1.7
v -1.2 3.3 -1.8
v -1.2 3.5 -1.7
v -1.2 3.5 -1.8
v -0.6 3.8 -1.8
v -0.6 3.8 -1.9
v -0.6 3.9 -1.8
v -0.6 3.9 -1.9
v -0.6 3.9 -2
v -0.6 4 -1.9
v -0.6 4 -2
v -0.4 3.8 -1.9
v -0.4 3.8 -2
v -0.4 3.9 -1.9
v -0.4 3.9 -2
v -0.2 2.6 -1.7
v -0.2 2.6 -1.8
v -0.2 2.8 -1.7
v -0.2 2.8 -1.8
v -0.2 3.8 -1.8
v -0.2 3.8 -1.9
v -0.2 3.9 -1.8
v -0.2 3.9 -1.9
v 2.38419e-07 3.9 -1.8
v 2.38419e-07 3.9 -1.9
v 2.38419e-07 4 -1.8
v 2.38419e-07 4 -1.9
v 0.1 3.8 -1.8
v 0.1 3.8 -1.9
v 0.1 3.9 -1.8
v 0.1 3.9 -1.9
v 0.2 3.8 -1.9
v 0.2 3.8 -2
v 0.2 4 -1.9
v 0.2 4 -2
v 0.4 3.7 -1.8
v 0.4 3.7 -2
v 0.4 3.9 -1.8
v 0.4 3.9 -1.9
v 0.4 4 -1.9
v 0.4 4 -2
v 0.6 3.9 -1.9
v 0.6 3.9 -2
v 0.6 4 -1.9
v 0.6 4 -2
v 0.9 3.2 -1.7
v 0.9 3.2 -1.8
v 0.9 3.4 -1.7
v 0.9 3.4 -1.8
v 0.9 3.9 -1.8
v 0.9 3.9 -1.9
v 0.9 4 -1.8
v 0.9 4 -1.9
v 1.1 3.7 -1.8
v 1.1 3.7 -1.9
v 1.1 3.9 -1.8
v 1.1 3.9 -1.9
v 1.1 3.9 -2
v 1.1 4 -1.9
v 1.1 4 -2
v 1.4 3.8 -1.8
v 1.4 3.8 -1.9
v 1.4 3.9 -1.8
v 1.4 3.9 -1.9
v 1.4 3.9 -2
v 1.4 4 -1.9
v 1.4 4 -2
v 1.5 3.8 -1.9
v 1.5 3.8 -2
v 1.5 3.9 -1.9
v 1.5 3.9 -2
v 1.6 3.9 -1.9
v 1.6 3.9 -2
v 1.6 4 -1.9
v 1.6 4 -2
v 1.7 3.8 -1.8
v 1.7 3.8 -1.9
v 1.7 3.9 -1.8
v 1.7 3.9 -1.9
v 1.8 2 -1.7
v 1.8 2 -1.8
v 1.8 2.2 -1.7
v 1.8 2.2 -1.8
v 1.8 3.9 -1.9
v 1.8 3.9 -2
v 1.8 4 -1.9
v 1.8 4 -2
v 2 0 -1.8
v 2 0 -2
v 2 4 -1.8
v 2 4 -2
v -1.6 3.3 -1.7
v -1.6 3.5 -1.7
v -1.2 3.3 -1.7
v -1.2 3.5 -1.7
v -0.6 2.6 -1.7
v -0.6 2.8 -1.7
v -0.2 2.6 -1.7
v -0.2 2.8 -1.7
v 0.5 3.2 -1.7
v 0.5 3.4 -1.7
v 0.9 3.2 -1.7
v 0.9 3.4 -1.7
v 1.4 2 -1.7
v 1.4 2.2 -1.7
v 1.8 2 -1.7
v 1.8 2.2 -1.7
v -2 0 -1.8
v -2 4 -1.8
v -1.9 3.8 -1.8
v -1.9 4 -1.8
v -1.8 3.8 -1.8
v -1.8 3.9 -1.8
v -1.7 3.8 -1.8
v -1.7 3.9 -1.8
v -1.6 3.3 -1.8
v -1.6 3.5 -1.8
v -1.6 3.8 -1.8
v -1.6 3.9 -1.8
v -1.5 3.7 -1.8
v -1.5 3.9 -1.8
v -1.3 3.7 -1.8
v -1.3 3.8 -1.8
v -1.2 3.3 -1.8
v -1.2 3.5 -1.8
v -0.7 3.8 -1.8
v -0.7 3.9 -1.8
v -0.6 2.6 -1.8
v -0.6 2.8 -1.8
v -0.6 3.8 -1.8
v -0.6 3.9 -1.8
v -0.3 3.8 -1.8
v -0.3 3.9 -1.8
v -0.2 2.6 -1.8
v -0.2 2.8 -1.8
v -0.2 3.8 -1.8
v -0.2 3.9 -1.8
v -0.0999999 3.8 -1.8
v -0.0999999 4 -1.8
v 2.38419e-07 3.9 -1.8
v 2.38419e-07 4 -1.8
v 0.1 3.8 -1.8
v 0.1 3.9 -1.8
v 0.3 3.8 -1.8
v 0.3 3.9 -1.8
v 0.4 3.7 -1.8
v 0.4 3.9 -1.8
v 0.5 3.2 -1.8
v 0.5 3.4 -1.8
v 0.5 3.7 -1.8
v 0.5 3.8 -1.8
v 0.6 3.8 -1.8
v 0.6 3.9 -1.8
v 0.8 3.9 -1.8
v 0.8 4 -1.8
v 0.9 3.2 -1.8
v 0.9 3.4 -1.8
v 0.9 3.9 -1.8
v 0.9 4 -1.8
v 1.1 3.7 -1.8
v 1.1 3.9 -1.8
v 1.3 3.7 -1.8
v 1.3 3.9 -1.8
v 1.4 2 -1.8
v 1.4 2.2 -1.8
v 1.4 3.8 -1.8
v 1.4 3.9 -1.8
v 1.6 3.8 -1.8
v 1.6 3.9 -1.8
v 1.7 3.8 -1.8
v 1.7 3.9 -1.8
v 1.8 2 -1.8
v 1.8 2.2 -1.8
v 1.9 3.8 -1.8
v 1.9 4 -1.8
v 2 0 -1.8
v 2 4 -1.8
v -1.9 3.8 -1.9
v -1.9 3.9 -1.9
v -1.8 3.8 -1.9
v -1.8 3.9 -1.9
v -1.7 3.9 -1.9
v -1.7 4 -1.9
v -1.6 3.9 -1.9
v -1.6 4 -1.9
v -1.5 3.7 -1.9
v -1.5 3.8 -1.9
v -1.3 3.7 -1.9
v -1.3 3.8 -1.9
v -0.8 3.8 -1.9
v -0.8 3.9 -1.9
v -0.7 3.8 -1.9
v -0.7 3.9 -1.9
v -0.7 4 -1.9
v -0.6 3.8 -1.9
v -0.6 3.9 -1.9
v -0.6 4 -1.9
v -0.5 3.9 -1.9
v -0.5 4 -1.9
v -0.4 3.8 -1.9
v -0.4 3.9 -1.9
v -0.3 3.9 -1.9
v -0.2 3.8 -1.9
v -0.2 3.9 -1.9
v -0.0999999 3.8 -1.9
v -0.0999999 4 -1.9
v 2.38419e-07 3.9 -1.9
v 2.38419e-07 4 -1.9
v 0.1 3.8 -1.9
v 0.1 3.9 -1.9
v 0.2 3.8 -1.9
v 0.2 4 -1.9
v 0.3 3.9 -1.9
v 0.3 4 -1.9
v 0.4 3.9 -1.9
v 0.4 4 -1.9
v 0.5 3.8 -1.9
v 0.5 4 -1.9
v 0.6 3.8 -1.9
v 0.6 3.9 -1.9
v 0.6 4 -1.9
v 0.9 3.9 -1.9
v 0.9 4 -1.9
v 1.1 3.7 -1.9
v 1.1 3.9 -1.9
v 1.1 4 -1.9
v 1.3 3.7 -1.9
v 1.3 3.9 -1.9
v 1.3 4 -1.9
v 1.4 3.8 -1.9
v 1.4 3.9 -1.9
v 1.4 4 -1.9
v 1.5 3.8 -1.9
v 1.5 3.9 -1.9
v 1.5 4 -1.9
v 1.6 3.9 -1.9
v 1.6 4 -1.9
v 1.7 3.8 -1.9
v 1.7 3.9 -1.9
v 1.7 4 -1.9
v 1.8 3.9 -1.9
v 1.8 4 -1.9
v 1.9 3.8 -1.9
v 1.9 3.9 -1.9
v -2 0 -2
v -2 4 -2
v -1.9 3.9 -2
v -1.9 4 -2
v -1.7 3.8 -2
v -1.7 3.9 -2
v -1.7 4 -2
v -1.6 3.8 -2
v -1.6 3.9 -2
v -1.6 4 -2
v -1.5 3.8 -2
v -1.5 3.9 -2
v -0.8 3.8 -2
v -0.8 3.9 -2
v -0.7 3.9 -2
v -0.7 4 -2
v -0.6 3.9 -2
v -0.6 4 -2
v -0.5 3.9 -2
v -0.5 4 -2
v -0.4 3.8 -2
v -0.4 3.9 -2
v -0.3 3.8 -2
v -0.3 3.9 -2
v 0.2 3.8 -2
v 0.2 4 -2
v 0.3 3.8 -2
v 0.3 4 -2
v 0.4 3.7 -2
v 0.4 4 -2
v 0.5 3.7 -2
v 0.5 4 -2
v 0.6 3.9 -2
v 0.6 4 -2
v 0.8 3.9 -2
v 0.8 4 -2
v 1.1 3.9 -2
v 1.1 4 -2
v 1.3 3.9 -2
v 1.3 4 -2
v 1.4 3.9 -2
v 1.4 4 -2
v 1.5 3.8 -2
v 1.5 3.9 -2
v 1.5 4 -2
v 1.6 3.8 -2
v 1.6 3.9 -2
v 1.6 4 -2
v 1.7 3.9 -2
v 1.7 4 -2
v 1.8 3.9 -2
v 1.8 4 -2
v 1.9 3.9 -2
v 1.9 4 -2
v 2 0 -2
v 2 4 -2
v -2 0 -1.8
v 2 0 -1.8
v -2 0 -2
v 2 0 -2
v 1.4 2 -1.7
v 1.8 2 -1.7
v 1.4 2 -1.8
v 1.8 2 -1.8
v -0.6 2.6 -1.7
v -0.2 2.6 -1.7
v -0.6 2.6 -1.8
v -0.2 2.6 -1.8
v 0.5 3.2 -1.7
v 0.9 3.2 -1.7
v 0.5 3.2 -1.8
v 0.9 3.2 -1.8
v -1.6 3.3 -1.7
v -1.2 3.3 -1.7
v -1.6 3.3 -1.8
v -1.2 3.3 -1.8
v -1.7 3.9 -1.9
v -1.6 3.9 -1.9
v -0.4 3.9 -1.9
v -0.3 3.9 -1.9
v 1.5 3.9 -1.9
v 1.6 3.9 -1.9
v -1.7 3.9 -2
v -1.6 3.9 -2
v -0.4 3.9 -2
v -0.3 3.9 -2
v 1.5 3.9 -2
v 1.6 3.9 -2
v 1.4 2.2 -1.7
v 1.8 2.2 -1.7
v 1.4 2.2 -1.8
v 1.8 2.2 -1.8
v -0.6 2.8 -1.7
v -0.2 2.8 -1.7
v -0.6 2.8 -1.8
v -0.2 2.8 -1.8
v 0.5 3.4 -1.7
v 0.9 3.4 -1.7
v 0.5 3.4 -1.8
v 0.9 3.4 -1.8
v -1.6 3.5 -1.7
v -1.2 3.5 -1.7
v -1.6 3.5 -1.8
v -1.2 3.5 -1.8
v -1.5 3.7 -1.8
v -1.3 3.7 -1.8
v 0.4 3.7 -1.8
v 0.5 3.7 -1.8
v 1.1 3.7 -1.8
v 1.3 3.7 -1.8
v -1.5 3.7 -1.9
v -1.3 3.7 -1.9
v 1.1 3.7 -1.9
v 1.3 3.7 -1.9
v 0.4 3.7 -2
v 0.5 3.7 -2
v -1.9 3.8 -1.8
v -1.8 3.8 -1.8
v -1.7 3.8 -1.8
v -1.6 3.8 -1.8
v -1.3 3.8 -1.8
v -0.7 3.8 -1.8
v -0.6 3.8 -1.8
v -0.3 3.8 -1.8
v -0.2 3.8 -1.8
v -0.0999999 3.8 -1.8
v 0.1 3.8 -1.8
v 0.3 3.8 -1.8
v 0.5 3.8 -1.8
v 0.6 3.8 -1.8
v 1.4 3.8 -1.8
v 1.6 3.8 -1.8
v 1.7 3.8 -1.8
v 1.9 3.8 -1.8
v -1.9 3.8 -1.9
v -1.8 3.8 -1.9
v -1.5 3.8 -1.9
v -1.3 3.8 -1.9
v -0.8 3.8 -1.9
v -0.7 3.8 -1.9
v -0.6 3.8 -1.9
v -0.4 3.8 -1.9
v -0.2 3.8 -1.9
v -0.0999999 3.8 -1.9
v 0.1 3.8 -1.9
v 0.2 3.8 -1.9
v 0.5 3.8 -1.9
v 0.6 3.8 -1.9
v 1.4 3.8 -1.9
v 1.5 3.8 -1.9
v 1.7 3.8 -1.9
v 1.9 3.8 -1.9
v -1.7 3.8 -2
v -1.6 3.8 -2
v -1.5 3.8 -2
v -0.8 3.8 -2
v -0.4 3.8 -2
v -0.3 3.8 -2
v 0.2 3.8 -2
v 0.3 3.8 -2
v 1.5 3.8 -2
v 1.6 3.8 -2
v -1.8 3.9 -1.8
v -1.7 3.9 -1.8
v -1.6 3.9 -1.8
v -1.5 3.9 -1.8
v -0.7 3.9 -1.8
v -0.6 3.9 -1.8
v -0.3 3.9 -1.8
v -0.2 3.9 -1.8
v 2.38419e-07 3.9 -1.8
v 0.1 3.9 -1.8
v 0.3 3.9 -1.8
v 0.4 3.9 -1.8
v 0.6 3.9 -1.8
v 0.8 3.9 -1.8
v 0.9 3.9 -1.8
v 1.1 3.9 -1.8
v 1.3 3.9 -1.8
v 1.4 3.9 -1.8
v 1.6 3.9 -1.8
v 1.7 3.9 -1.8
v -1.9 3.9 -1.9
v -1.8 3.9 -1.9
v -1.7 3.9 -1.9
v -1.6 3.9 -1.9
v -0.8 3.9 -1.9
v -0.7 3.9 -1.9
v -0.6 3.9 -1.9
v -0.5 3.9 -1.9
v -0.3 3.9 -1.9
v -0.2 3.9 -1.9
v 2.38419e-07 3.9 -1.9
v 0.1 3.9 -1.9
v 0.3 3.9 -1.9
v 0.4 3.9 -1.9
v 0.6 3.9 -1.9
v 0.9 3.9 -1.9
v 1.1 3.9 -1.9
v 1.3 3.9 -1.9
v 1.4 3.9 -1.9
v 1.5 3.9 -1.9
v 1.6 3.9 -1.9
v 1.7 3.9 -1.9
v 1.8 3.9 -1.9
v 1.9 3.9 -1.9
v -1.9 3.9 -2
v -1.7 3.9 -2
v -1.6 3.9 -2
v -1.5 3.9 -2
v -0.8 3.9 -2
v -0.7 3.9 -2
v -0.6 3.9 -2
v -0.5 3.9 -2
v 0.6 3.9 -2
v 0.8 3.9 -2
v 1.1 3.9 -2
v 1.3 3.9 -2
v 1.4 3.9 -2
v 1.5 3.9 -2
v 1.6 3.9 -2
v 1.7 3.9 -2
v 1.8 3.9 -2
v 1.9 3.9 -2
v -2 4 -1.8
v -1.9 4 -1.8
v -0.0999999 4 -1.8
v 2.38419e-07 4 -1.8
v 0.8 4 -1.8
v 0.9 4 -1.8
v 1.9 4 -1.8
v 2 4 -1.8
v -1.7 4 -1.9
v -1.6 4 -1.9
v -0.7 4 -1.9
v -0.6 4 -1.9
v -0.5 4 -1.9
v -0.0999999 4 -1.9
v 2.38419e-07 4 -1.9
v 0.2 4 -1.9
v 0.3 4 -1.9
v 0.4 4 -1.9
v 0.5 4 -1.9
v 0.6 4 -1.9
v 0.9 4 -1.9
v 1.1 4 -1.9
v 1.3 4 -1.9
v 1.4 4 -1.9
v 1.5 4 -1.9
v 1.6 4 -1.9
v 1.7 4 -1.9
v 1.8 4 -1.9
v -2 4 -2
v -1.9 4 -2
v -1.7 4 -2
v -1.6 4 -2
v -0.7 4 -2
v -0.6 4 -2
v -0.5 4 -2
v 0.2 4 -2
v 0.3 4 -2
v 0.4 4 -2
v 0.5 4 -2
v 0.6 4 -2
v 0.8 4 -2
v 1.1 4 -2
v 1.3 4 -2
v 1.4 4 -2
v 1.5 4 -2
v 1.6 4 -2
v 1.7 4 -2
v 1.8 4 -2
v 1.9 4 -2
v 2 4 -2

# faces
f 3/2/1 2/2/1 1/2/1
f 4/2/1 2/2/1 3/2/1
f 7/2/1 6/2/1 5/2/1
f 8/2/1 6/2/1 7/2/1
f 11/2/1 10/2/1 9/2/1
f 12/2/1 10/2/1 11/2/1
f 15/1/1 14/1/1 13/1/1
f 16/1/1 14/1/1 15/1/1
f 19/2/1 18/2/1 17/2/1
f 20/2/1 18/2/1 19/2/1
f 21/2/1 18/2/1 20/2/1
f 24/2/1 23/2/1 22/2/1
f 25/2/1 23/2/1 24/2/1
f 28/2/1 27/2/1 26/2/1
f 29/2/1 27/2/1 28/2/1
f 32/2/1 31/2/1 30/2/1
f 33/2/1 31/2/1 32/2/1
f 35/2/1 34/2/1 33/2/1
f 36/2/1 34/2/1 35/2/1
f 39/1/1 38/1/1 37/1/1
f 40/1/1 38/1/1 39/1/1
f 43/2/1 42/2/1 41/2/1
f 44/2/1 42/2/1 43/2/1
f 47/2/1 46/2/1 45/2/1
f 48/2/1 46/2/1 47/2/1
f 49/2/1 46/2/1 48/2/1
f 52/2/1 51/2/1 50/2/1
f 53/2/1 51/2/1 52/2/1
f 56/2/1 55/2/1 54/2/1
f 57/2/1 55/2/1 56/2/1
f 58/2/1 55/2/1 57/2/1
f 59/2/1 55/2/1 58/2/1
f 62/1/1 61/1/1 60/1/1
f 63/1/1 61/1/1 62/1/1
f 66/2/1 65/2/1 64/2/1
f 67/2/1 65/2/1 66/2/1
f 68/2/1 65/2/1 67/2/1
f 69/2/1 65/2/1 68/2/1
f 72/2/1 71/2/1 70/2/1
f 73/2/1 71/2/1 72/2/1
f 76/2/1 75/2/1 74/2/1
f 77/2/1 75/2/1 76/2/1
f 80/2/1 79/2/1 78/2/1
f 81/2/1 79/2/1 80/2/1
f 83/2/1 82/2/1 81/2/1
f 84/2/1 82/2/1 83/2/1
f 87/1/1 86/1/1 85/1/1
f 88/1/1 86/1/1 87/1/1
f 91/2/1 90/2/1 89/2/1
f 92/2/1 90/2/1 91/2/1
f 95/2/1 94/2/1 93/2/1
f 96/2/1 94/2/1 95/2/1
f 97/2/1 94/2/1 96/2/1
f 100/2/1 99/2/1 98/2/1
f 101/2/1 99/2/1 100/2/1
f 104/2/1 103/2/1 102/2/1
f 106/2/1 104/2/1 102/2/1
f 106/2/1 105/2/1 104/2/1
f 107/2/1 105/2/1 106/2/1
f 108/2/2 109/2/2 110/2/2
f 108/2/2 110/2/2 112/2/2
f 110/2/2 111/2/2 112/2/2
f 112/2/2 111/2/2 113/2/2
f 114/2/2 115/2/2 116/2/2
f 116/2/2 115/2/2 117/2/2
f 117/2/2 115/2/2 118/2/2
f 119/2/2 120/2/2 121/2/2
f 121/2/2 120/2/2 122/2/2
f 123/2/2 124/2/2 125/2/2
f 123/2/2 125/2/2 127/2/2
f 125/2/2 126/2/2 127/2/2
f 127/2/2 126/2/2 128/2/2
f 129/1/2 130/1/2 131/1/2
f 131/1/2 130/1/2 132/1/2
f 133/2/2 134/2/2 135/2/2
f 135/2/2 134/2/2 136/2/2
f 136/2/2 137/2/2 138/2/2
f 138/2/2 137/2/2 139/2/2
f 140/2/2 141/2/2 142/2/2
f 142/2/2 141/2/2 143/2/2
f 144/1/2 145/1/2 146/1/2
f 146/1/2 145/1/2 147/1/2
f 148/2/2 149/2/2 150/2/2
f 150/2/2 149/2/2 151/2/2
f 152/2/2 153/2/2 154/2/2
f 154/2/2 153/2/2 155/2/2
f 156/2/2 157/2/2 158/2/2
f 158/2/2 157/2/2 159/2/2
f 160/2/2 161/2/2 162/2/2
f 162/2/2 161/2/2 163/2/2
f 164/2/2 165/2/2 166/2/2
f 166/2/2 165/2/2 167/2/2
f 167/2/2 165/2/2 168/2/2
f 168/2/2 165/2/2 169/2/2
f 170/2/2 171/2/2 172/2/2
f 172/2/2 171/2/2 173/2/2
f 174/1/2 175/1/2 176/1/2
f 176/1/2 175/1/2 177/1/2
f 178/2/2 179/2/2 180/2/2
f 180/2/2 179/2/2 181/2/2
f 182/2/2 183/2/2 184/2/2
f 184/2/2 183/2/2 185/2/2
f 185/2/2 186/2/2 187/2/2
f 187/2/2 186/2/2 188/2/2
f 189/2/2 190/2/2 191/2/2
f 191/2/2 190/2/2 192/2/2
f 192/2/2 193/2/2 194/2/2
f 194/2/2 193/2/2 195/2/2
f 196/2/2 197/2/2 198/2/2
f 198/2/2 197/2/2 199/2/2
f 200/2/2 201/2/2 202/2/2
f 202/2/2 201/2/2 203/2/2
f 204/2/2 205/2/2 206/2/2
f 206/2/2 205/2/2 207/2/2
f 208/1/2 209/1/2 210/1/2
f 210/1/2 209/1/2 211/1/2
f 212/2/2 213/2/2 214/2/2
f 214/2/2 213/2/2 215/2/2
f 216/2/2 217/2/2 218/2/2
f 218/2/2 217/2/2 219/2/2
f 222/1/3 221/1/3 220/1/3
f 223/1/3 221/1/3 222/1/3
f 226/1/3 225/1/3 224/1/3
f 227/1/3 225/1/3 226/1/3
f 230/1/3 229/1/3 228/1/3
f 231/1/3 229/1/3 230/1/3
f 234/1/3 233/1/3 232/1/3
f 235/1/3 233/1/3 234/1/3
f 238/2/3 237/2/3 236/2/3
f 239/2/3 237/2/3 238/2/3
f 240/2/3 238/2/3 236/2/3
f 242/2/3 240/2/3 236/2/3
f 242/2/3 241/2/3 240/2/3
f 243/2/3 241/2/3 242/2/3
f 244/2/3 242/2/3 236/2/3
f 245/2/3 242/2/3 244/2/3
f 246/2/3 242/2/3 245/2/3
f 248/2/3 247/2/3 246/2/3
f 248/2/3 246/2/3 245/2/3
f 249/2/3 247/2/3 248/2/3
f 250/2/3 248/2/3 245/2/3
f 252/2/3 244/2/3 236/2/3
f 253/2/3 251/2/3 250/2/3
f 253/2/3 250/2/3 245/2/3
f 254/2/3 251/2/3 253/2/3
f 254/2/3 253/2/3 252/2/3
f 256/2/3 252/2/3 236/2/3
f 256/2/3 255/2/3 254/2/3
f 256/2/3 254/2/3 252/2/3
f 257/2/3 255/2/3 256/2/3
f 258/2/3 255/2/3 257/2/3
f 259/2/3 255/2/3 258/2/3
f 260/2/3 258/2/3 257/2/3
f 262/2/3 256/2/3 236/2/3
f 263/2/3 261/2/3 260/2/3
f 263/2/3 260/2/3 257/2/3
f 264/2/3 261/2/3 263/2/3
f 265/2/3 261/2/3 264/2/3
f 266/2/3 263/2/3 262/2/3
f 266/2/3 264/2/3 263/2/3
f 268/2/3 267/2/3 266/2/3
f 269/2/3 267/2/3 268/2/3
f 270/2/3 266/2/3 262/2/3
f 270/2/3 268/2/3 266/2/3
f 271/2/3 268/2/3 270/2/3
f 272/2/3 270/2/3 262/2/3
f 274/2/3 272/2/3 262/2/3
f 274/2/3 273/2/3 272/2/3
f 275/2/3 273/2/3 274/2/3
f 276/2/3 274/2/3 262/2/3
f 277/2/3 274/2/3 276/2/3
f 278/2/3 274/2/3 277/2/3
f 280/2/3 279/2/3 278/2/3
f 280/2/3 278/2/3 277/2/3
f 282/2/3 281/2/3 280/2/3
f 284/2/3 276/2/3 262/2/3
f 285/2/3 282/2/3 280/2/3
f 285/2/3 280/2/3 277/2/3
f 285/2/3 283/2/3 282/2/3
f 286/2/3 283/2/3 285/2/3
f 287/2/3 283/2/3 286/2/3
f 288/2/3 285/2/3 284/2/3
f 288/2/3 286/2/3 285/2/3
f 289/2/3 286/2/3 288/2/3
f 290/2/3 288/2/3 284/2/3
f 292/2/3 262/2/3 236/2/3
f 292/2/3 291/2/3 290/2/3
f 292/2/3 290/2/3 284/2/3
f 292/2/3 284/2/3 262/2/3
f 293/2/3 291/2/3 292/2/3
f 294/2/3 291/2/3 293/2/3
f 295/2/3 291/2/3 294/2/3
f 296/2/3 294/2/3 293/2/3
f 298/2/3 296/2/3 293/2/3
f 298/2/3 297/2/3 296/2/3
f 299/2/3 297/2/3 298/2/3
f 300/2/3 292/2/3 236/2/3
f 301/2/3 298/2/3 293/2/3
f 302/2/3 298/2/3 301/2/3
f 302/2/3 301/2/3 300/2/3
f 304/2/3 302/2/3 300/2/3
f 304/2/3 303/2/3 302/2/3
f 304/2/3 300/2/3 236/2/3
f 305/2/3 303/2/3 304/2/3
f 308/2/3 307/2/3 306/2/3
f 309/2/3 307/2/3 308/2/3
f 312/2/3 311/2/3 310/2/3
f 313/2/3 311/2/3 312/2/3
f 316/2/3 315/2/3 314/2/3
f 317/2/3 315/2/3 316/2/3
f 320/2/3 319/2/3 318/2/3
f 321/2/3 319/2/3 320/2/3
f 324/2/3 322/2/3 321/2/3
f 325/2/3 322/2/3 324/2/3
f 326/2/3 324/2/3 323/2/3
f 328/2/3 326/2/3 323/2/3
f 328/2/3 327/2/3 326/2/3
f 329/2/3 327/2/3 328/2/3
f 330/2/3 327/2/3 329/2/3
f 332/2/3 327/2/3 330/2/3
f 333/2/3 332/2/3 331/2/3
f 334/2/3 327/2/3 332/2/3
f 334/2/3 332/2/3 333/2/3
f 338/2/3 336/2/3 335/2/3
f 339/2/3 338/2/3 337/2/3
f 340/2/3 336/2/3 338/2/3
f 340/2/3 338/2/3 339/2/3
f 343/2/3 342/2/3 341/2/3
f 344/2/3 342/2/3 343/2/3
f 347/2/3 346/2/3 345/2/3
f 348/2/3 346/2/3 347/2/3
f 349/2/3 346/2/3 348/2/3
f 353/2/3 351/2/3 350/2/3
f 354/2/3 351/2/3 353/2/3
f 355/2/3 353/2/3 352/2/3
f 356/2/3 353/2/3 355/2/3
f 359/2/3 357/2/3 356/2/3
f 360/2/3 357/2/3 359/2/3
f 361/2/3 359/2/3 358/2/3
f 362/2/3 359/2/3 361/2/3
f 364/2/3 363/2/3 362/2/3
f 365/2/3 363/2/3 364/2/3
f 369/2/3 367/2/3 366/2/3
f 369/2/3 368/2/3 367/2/3
f 370/2/3 368/2/3 369/2/3
f 371/2/3 369/2/3 366/2/3
f 372/2/3 369/2/3 371/2/3
f 373/2/4 374/2/4 375/2/4
f 375/2/4 374/2/4 376/2/4
f 373/2/4 375/2/4 377/2/4
f 377/2/4 375/2/4 378/2/4
f 373/2/4 377/2/4 380/2/4
f 378/2/4 379/2/4 381/2/4
f 381/2/4 379/2/4 382/2/4
f 373/2/4 380/2/4 383/2/4
f 380/2/4 381/2/4 383/2/4
f 383/2/4 381/2/4 384/2/4
f 373/2/4 383/2/4 385/2/4
f 385/2/4 386/2/4 387/2/4
f 385/2/4 387/2/4 389/2/4
f 387/2/4 388/2/4 389/2/4
f 389/2/4 388/2/4 390/2/4
f 385/2/4 389/2/4 391/2/4
f 373/2/4 385/2/4 393/2/4
f 391/2/4 392/2/4 393/2/4
f 385/2/4 391/2/4 393/2/4
f 393/2/4 392/2/4 394/2/4
f 373/2/4 393/2/4 395/2/4
f 394/2/4 392/2/4 396/2/4
f 373/2/4 395/2/4 397/2/4
f 395/2/4 396/2/4 397/2/4
f 396/2/4 392/2/4 398/2/4
f 397/2/4 396/2/4 398/2/4
f 373/2/4 397/2/4 399/2/4
f 373/2/4 399/2/4 401/2/4
f 399/2/4 400/2/4 401/2/4
f 401/2/4 400/2/4 402/2/4
f 373/2/4 401/2/4 403/2/4
f 403/2/4 404/2/4 405/2/4
f 405/2/4 404/2/4 406/2/4
f 403/2/4 405/2/4 407/2/4
f 403/2/4 407/2/4 409/2/4
f 407/2/4 408/2/4 409/2/4
f 409/2/4 408/2/4 410/2/4
f 403/2/4 409/2/4 411/2/4
f 403/2/4 411/2/4 413/2/4
f 411/2/4 412/2/4 413/2/4
f 413/2/4 412/2/4 414/2/4
f 403/2/4 413/2/4 415/2/4
f 415/2/4 413/2/4 416/2/4
f 403/2/4 415/2/4 418/2/4
f 416/2/4 417/2/4 419/2/4
f 419/2/4 417/2/4 420/2/4
f 418/2/4 419/2/4 421/2/4
f 418/2/4 421/2/4 423/2/4
f 421/2/4 422/2/4 423/2/4
f 423/2/4 422/2/4 424/2/4
f 418/2/4 423/2/4 425/2/4
f 373/2/4 403/2/4 427/2/4
f 425/2/4 426/2/4 427/2/4
f 418/2/4 425/2/4 427/2/4
f 403/2/4 418/2/4 427/2/4
f 427/2/4 426/2/4 428/2/4
f 431/2/5 430/2/5 429/2/5
f 432/2/5 430/2/5 431/2/5
f 435/1/5 434/1/5 433/1/5
f 436/1/5 434/1/5 435/1/5
f 439/1/5 438/1/5 437/1/5
f 440/1/5 438/1/5 439/1/5
f 443/1/5 442/1/5 441/1/5
f 444/1/5 442/1/5 443/1/5
f 447/1/5 446/1/5 445/1/5
f 448/1/5 446/1/5 447/1/5
f 455/2/5 450/2/5 449/2/5
f 456/2/5 450/2/5 455/2/5
f 457/2/5 452/2/5 451/2/5
f 458/2/5 452/2/5 457/2/5
f 459/2/5 454/2/5 453/2/5
f 460/2/5 454/2/5 459/2/5
f 461/1/6 462/1/6 463/1/6
f 463/1/6 462/1/6 464/1/6
f 465/1/6 466/1/6 467/1/6
f 467/1/6 466/1/6 468/1/6
f 469/1/6 470/1/6 471/1/6
f 471/1/6 470/1/6 472/1/6
f 473/1/6 474/1/6 475/1/6
f 475/1/6 474/1/6 476/1/6
f 477/2/6 478/2/6 483/2/6
f 483/2/6 478/2/6 484/2/6
f 481/2/6 482/2/6 485/2/6
f 485/2/6 482/2/6 486/2/6
f 479/2/6 480/2/6 487/2/6
f 487/2/6 480/2/6 488/2/6
f 489/2/6 490/2/6 507/2/6
f 507/2/6 490/2/6 508/2/6
f 493/2/6 494/2/6 510/2/6
f 510/2/6 494/2/6 511/2/6
f 511/2/6 494/2/6 512/2/6
f 495/2/6 496/2/6 513/2/6
f 513/2/6 496/2/6 514/2/6
f 497/2/6 498/2/6 515/2/6
f 515/2/6 498/2/6 516/2/6
f 499/2/6 500/2/6 517/2/6
f 517/2/6 500/2/6 518/2/6
f 501/2/6 502/2/6 519/2/6
f 519/2/6 502/2/6 520/2/6
f 503/2/6 504/2/6 521/2/6
f 521/2/6 504/2/6 522/2/6
f 505/2/6 506/2/6 523/2/6
f 523/2/6 506/2/6 524/2/6
f 491/2/6 492/2/6 525/2/6
f 525/2/6 492/2/6 526/2/6
f 509/2/6 510/2/6 527/2/6
f 510/2/6 511/2/6 527/2/6
f 527/2/6 511/2/6 528/2/6
f 514/2/6 496/2/6 529/2/6
f 529/2/6 496/2/6 530/2/6
f 518/2/6 500/2/6 531/2/6
f 531/2/6 500/2/6 532/2/6
f 522/2/6 504/2/6 533/2/6
f 533/2/6 504/2/6 534/2/6
f 535/2/6 536/2/6 556/2/6
f 556/2/6 536/2/6 557/2/6
f 537/2/6 538/2/6 558/2/6
f 539/2/6 540/2/6 560/2/6
f 560/2/6 540/2/6 561/2/6
f 541/2/6 542/2/6 563/2/6
f 563/2/6 542/2/6 564/2/6
f 543/2/6 544/2/6 565/2/6
f 565/2/6 544/2/6 566/2/6
f 545/2/6 546/2/6 567/2/6
f 567/2/6 546/2/6 568/2/6
f 547/2/6 548/2/6 569/2/6
f 549/2/6 550/2/6 570/2/6
f 570/2/6 550/2/6 571/2/6
f 551/2/6 552/2/6 572/2/6
f 572/2/6 552/2/6 573/2/6
f 553/2/6 554/2/6 575/2/6
f 575/2/6 554/2/6 576/2/6
f 556/2/6 557/2/6 579/2/6
f 555/2/6 556/2/6 579/2/6
f 579/2/6 557/2/6 580/2/6
f 558/2/6 538/2/6 581/2/6
f 581/2/6 538/2/6 582/2/6
f 559/2/6 560/2/6 583/2/6
f 583/2/6 560/2/6 584/2/6
f 561/2/6 562/2/6 585/2/6
f 585/2/6 562/2/6 586/2/6
f 569/2/6 548/2/6 587/2/6
f 587/2/6 548/2/6 588/2/6
f 571/2/6 572/2/6 589/2/6
f 589/2/6 572/2/6 590/2/6
f 573/2/6 574/2/6 591/2/6
f 591/2/6 574/2/6 592/2/6
f 575/2/6 576/2/6 593/2/6
f 593/2/6 576/2/6 594/2/6
f 577/2/6 578/2/6 595/2/6
f 595/2/6 578/2/6 596/2/6
f 599/2/6 600/2/6 610/2/6
f 610/2/6 600/2/6 611/2/6
f 601/2/6 602/2/6 617/2/6
f 597/2/6 598/2/6 625/2/6
f 625/2/6 598/2/6 626/2/6
f 605/2/6 606/2/6 627/2/6
f 627/2/6 606/2/6 628/2/6
f 607/2/6 608/2/6 629/2/6
f 629/2/6 608/2/6 630/2/6
f 609/2/6 610/2/6 631/2/6
f 610/2/6 611/2/6 631/2/6
f 611/2/6 612/2/6 631/2/6
f 631/2/6 612/2/6 632/2/6
f 613/2/6 614/2/6 633/2/6
f 633/2/6 614/2/6 634/2/6
f 615/2/6 616/2/6 635/2/6
f 635/2/6 616/2/6 636/2/6
f 601/2/6 617/2/6 637/2/6
f 617/2/6 618/2/6 637/2/6
f 637/2/6 618/2/6 638/2/6
f 619/2/6 620/2/6 639/2/6
f 639/2/6 620/2/6 640/2/6
f 621/2/6 622/2/6 641/2/6
f 641/2/6 622/2/6 642/2/6
f 623/2/6 624/2/6 643/2/6
f 643/2/6 624/2/6 644/2/6
f 603/2/6 604/2/6 645/2/6
f 645/2/6 604/2/6 646/2/6
